<svg width="24" height="24" viewBox="0 0 24 24" fill="none" xmlns="http://www.w3.org/2000/svg">
<mask id="mask0_0_288" style="mask-type:alpha" maskUnits="userSpaceOnUse" x="0" y="0" width="24" height="24">
<rect width="24" height="24" fill="#D9D9D9"/>
</mask>
<g mask="url(#mask0_0_288)">
<path d="M12.1 21C10.8398 21 9.65842 20.7621 8.55575 20.2865C7.45325 19.8108 6.4895 19.1605 5.6645 18.3355C4.8395 17.5105 4.18917 16.5467 3.7135 15.4442C3.23783 14.3416 3 13.1601 3 11.9C3 9.95381 3.56025 8.19898 4.68075 6.63548C5.80125 5.07198 7.2795 3.98198 9.1155 3.36548C9.04617 4.92565 9.28525 6.4259 9.83275 7.86623C10.3801 9.30673 11.207 10.5801 12.3135 11.6865C13.4198 12.793 14.6932 13.6199 16.1337 14.1672C17.5741 14.7147 19.0743 14.9538 20.6345 14.8845C20.0218 16.7205 18.9328 18.1987 17.3673 19.3192C15.8019 20.4397 14.0462 21 12.1 21ZM12.1 20C13.5667 20 14.925 19.6333 16.175 18.9C17.425 18.1666 18.4083 17.1566 19.125 15.8697C17.6917 15.7359 16.3333 15.3724 15.05 14.7792C13.7667 14.1859 12.6167 13.3795 11.6 12.36C10.5833 11.3405 9.775 10.1923 9.175 8.91548C8.575 7.63848 8.21667 6.28331 8.1 4.84998C6.81667 5.56665 5.8125 6.55415 5.0875 7.81248C4.3625 9.07081 4 10.4333 4 11.9C4 14.15 4.7875 16.0625 6.3625 17.6375C7.9375 19.2125 9.85 20 12.1 20Z" fill="#ACACAC"/>
</g>
</svg>
