<svg width="24" height="24" viewBox="0 0 24 24" fill="none" xmlns="http://www.w3.org/2000/svg">
<mask id="mask0_0_284" style="mask-type:alpha" maskUnits="userSpaceOnUse" x="0" y="0" width="24" height="24">
<rect width="24" height="24" fill="#D9D9D9"/>
</mask>
<g mask="url(#mask0_0_284)">
<path d="M11.5001 5.42307V2.03857H12.5001V5.42307H11.5001ZM16.9963 7.71158L16.3136 7.02883L18.6713 4.57708L19.3981 5.30958L16.9963 7.71158ZM18.5771 12.5001V11.5001H21.9616V12.5001H18.5771ZM11.5001 21.9616V18.5963H12.5001V21.9616H11.5001ZM7.04232 7.68082L4.57707 5.32883L5.32882 4.62132L7.73082 7.00383L7.04232 7.68082ZM18.6656 19.4231L16.3136 16.9713L16.9906 16.3136L19.3788 18.6596L18.6656 19.4231ZM2.03857 12.5001V11.5001H5.42307V12.5001H2.03857ZM5.30957 19.4231L4.62132 18.6713L6.97882 16.3136L7.33857 16.6616L7.71732 17.0156L5.30957 19.4231ZM12.0046 17.0001C10.6169 17.0001 9.43591 16.5144 8.46157 15.5431C7.48724 14.5717 7.00007 13.3922 7.00007 12.0046C7.00007 10.6169 7.48574 9.43591 8.45707 8.46158C9.42841 7.48724 10.6079 7.00008 11.9956 7.00008C13.3832 7.00008 14.5642 7.48574 15.5386 8.45708C16.5129 9.42841 17.0001 10.6079 17.0001 11.9956C17.0001 13.3832 16.5144 14.5642 15.5431 15.5386C14.5717 16.5129 13.3922 17.0001 12.0046 17.0001ZM12.0001 16.0001C13.1001 16.0001 14.0417 15.6084 14.8251 14.8251C15.6084 14.0417 16.0001 13.1001 16.0001 12.0001C16.0001 10.9001 15.6084 9.95841 14.8251 9.17508C14.0417 8.39174 13.1001 8.00008 12.0001 8.00008C10.9001 8.00008 9.95841 8.39174 9.17507 9.17508C8.39174 9.95841 8.00007 10.9001 8.00007 12.0001C8.00007 13.1001 8.39174 14.0417 9.17507 14.8251C9.95841 15.6084 10.9001 16.0001 12.0001 16.0001Z" fill="#ACACAC"/>
</g>
</svg>
