<svg width="44" height="44" viewBox="0 0 44 44" fill="none" xmlns="http://www.w3.org/2000/svg">
<mask id="mask0_0_528" style="mask-type:alpha" maskUnits="userSpaceOnUse" x="0" y="0" width="44" height="44">
<rect width="44" height="44" fill="#D9D9D9"/>
</mask>
<g mask="url(#mask0_0_528)">
<path d="M29 19C29.2833 19 29.5208 18.9042 29.7125 18.7125C29.9042 18.5208 30 18.2833 30 18C30 17.7167 29.9042 17.4792 29.7125 17.2875C29.5208 17.0958 29.2833 17 29 17C28.7167 17 28.4792 17.0958 28.2875 17.2875C28.0958 17.4792 28 17.7167 28 18C28 18.2833 28.0958 18.5208 28.2875 18.7125C28.4792 18.9042 28.7167 19 29 19ZM28.9988 20C28.4316 20 27.9567 19.8088 27.574 19.4262C27.1913 19.0437 27 18.5698 27 18.0045C27 17.4502 27.1913 16.9775 27.5738 16.5865C27.9563 16.1955 28.4302 16 28.9955 16C29.5498 16 30.0225 16.1946 30.4135 16.5837C30.8045 16.9729 31 17.4454 31 18.0012C31 18.5684 30.8054 19.0433 30.4163 19.426C30.0271 19.8087 29.5546 20 28.9988 20ZM22 18C22.4167 18 22.7708 17.8583 23.0625 17.575C23.3542 17.2917 23.5 16.9333 23.5 16.5C23.5 16.0833 23.3542 15.7292 23.0625 15.4375C22.7708 15.1458 22.4167 15 22 15C21.5667 15 21.2083 15.1458 20.925 15.4375C20.6417 15.7292 20.5 16.0833 20.5 16.5C20.5 16.9333 20.6417 17.2917 20.925 17.575C21.2083 17.8583 21.5667 18 22 18ZM22.0013 19C21.2991 19 20.7067 18.7595 20.224 18.2785C19.7413 17.7977 19.5 17.2069 19.5 16.5063C19.5 15.8174 19.7405 15.2275 20.2215 14.7365C20.7023 14.2455 21.2931 14 21.9938 14C22.6826 14 23.2725 14.2439 23.7635 14.7318C24.2545 15.2196 24.5 15.8086 24.5 16.4988C24.5 17.2009 24.2561 17.7933 23.7682 18.276C23.2804 18.7587 22.6914 19 22.0013 19ZM17.4615 23.375C17.4615 23.9775 17.741 24.6378 18.3 25.3558C18.859 26.0738 19.9705 27.1898 21.6345 28.7038L22 29.0307L22.4038 28.6462C23.9704 27.2296 25.0512 26.1467 25.6462 25.3975C26.2411 24.6485 26.5385 23.9743 26.5385 23.375C26.5385 22.8415 26.3618 22.3893 26.0083 22.0183C25.6546 21.6471 25.2185 21.4615 24.7 21.4615C24.3885 21.4615 24.0936 21.5308 23.8152 21.6693C23.5371 21.8078 23.2993 21.9943 23.102 22.2288L22.075 23.4615H21.9192L20.873 22.2288C20.6757 21.9943 20.4408 21.8078 20.1683 21.6693C19.8958 21.5308 19.6063 21.4615 19.3 21.4615C18.7578 21.4615 18.3159 21.6471 17.9743 22.0183C17.6324 22.3893 17.4615 22.8415 17.4615 23.375ZM16.4615 23.375C16.4615 22.6198 16.7391 21.9455 17.2943 21.352C17.8494 20.7583 18.518 20.4615 19.3 20.4615C19.791 20.4615 20.2483 20.5782 20.672 20.8115C21.0958 21.0448 21.4552 21.3487 21.75 21.723L22 22.0115L22.25 21.7038C22.5577 21.3423 22.9192 21.0448 23.3345 20.8115C23.75 20.5782 24.2052 20.4615 24.7 20.4615C25.4692 20.4615 26.1346 20.7601 26.6962 21.3573C27.2577 21.9543 27.5385 22.6268 27.5385 23.375C27.5385 24.1558 27.2337 24.9529 26.624 25.7662C26.0143 26.5797 24.8268 27.7923 23.0615 29.4038L22 30.3845L20.977 29.4615C19.1527 27.782 17.944 26.5461 17.351 25.7537C16.758 24.9616 16.4615 24.1687 16.4615 23.375ZM15 19C15.2833 19 15.5208 18.9042 15.7125 18.7125C15.9042 18.5208 16 18.2833 16 18C16 17.7167 15.9042 17.4792 15.7125 17.2875C15.5208 17.0958 15.2833 17 15 17C14.7167 17 14.4792 17.0958 14.2875 17.2875C14.0958 17.4792 14 17.7167 14 18C14 18.2833 14.0958 18.5208 14.2875 18.7125C14.4792 18.9042 14.7167 19 15 19ZM22.075 31V30H30V23.6155C30 23.4488 29.9391 23.3046 29.8173 23.1827C29.6954 23.0609 29.5512 23 29.3845 23H27.127V22H29.3845C29.8288 22 30.2092 22.1582 30.5255 22.4745C30.8418 22.7908 31 23.1712 31 23.6155V31H22.075ZM14 30H22.075V31H13V23.6207C13 23.1697 13.1548 22.7868 13.4645 22.472C13.774 22.1573 14.1577 22 14.6155 22H16.873V23H14.6155C14.436 23 14.2885 23.0609 14.173 23.1827C14.0577 23.3046 14 23.4488 14 23.6155V30ZM14.9987 20C14.4316 20 13.9567 19.8088 13.574 19.4262C13.1913 19.0437 13 18.5698 13 18.0045C13 17.4502 13.1912 16.9775 13.5737 16.5865C13.9562 16.1955 14.4302 16 14.9955 16C15.5498 16 16.0225 16.1946 16.4135 16.5837C16.8045 16.9729 17 17.4454 17 18.0012C17 18.5684 16.8054 19.0433 16.4162 19.426C16.0271 19.8087 15.5546 20 14.9987 20Z" fill="#7A7A7A"/>
</g>
</svg>
