<?xml version="1.0" encoding="UTF-8"?>
<svg id="Layer_1" xmlns="http://www.w3.org/2000/svg" version="1.1" xmlns:xlink="http://www.w3.org/1999/xlink" viewBox="0 0 44 44">
  <!-- Generator: Adobe Illustrator 30.1.0, SVG Export Plug-In . SVG Version: 2.1.1 Build 136)  -->
  <defs>
    <style>
      .st0 {
        mask: url(#mask);
      }

      .st1 {
        fill: #7a7a7a;
      }

      .st2 {
        fill: #d9d9d9;
      }
    </style>
    <mask id="mask" x="-31.78" y="-31.78" width="107.56" height="107.56" maskUnits="userSpaceOnUse">
      <g id="mask0_0_524">
        <rect class="st2" x="-31.78" y="-31.78" width="107.56" height="107.56"/>
      </g>
    </mask>
  </defs>
  <g class="st0">
    <path class="st1" d="M13.16,22.75h17.68v-2.44H13.16v2.44ZM13.16,29.52h17.68v-2.44H13.16v2.44ZM13.16,36.29h10.34v-2.44h-10.34v2.44ZM8.84,44c-1.13,0-2.06-.38-2.82-1.13s-1.13-1.69-1.13-2.82V3.95c0-1.13.38-2.06,1.13-2.82s1.69-1.13,2.82-1.13h19.27l11,11v29.05c0,1.13-.38,2.06-1.13,2.82s-1.69,1.13-2.82,1.13H8.84ZM26.89,12.22V2.44H8.84c-.38,0-.72.16-1.03.47-.31.31-.47.66-.47,1.03v36.1c0,.38.16.72.47,1.03s.66.47,1.03.47h26.32c.38,0,.72-.16,1.03-.47s.47-.66.47-1.03V12.22h-9.78Z"/>
  </g>
</svg>