<svg width="44" height="44" viewBox="0 0 44 44" fill="none" xmlns="http://www.w3.org/2000/svg">
<mask id="mask0_0_524" style="mask-type:alpha" maskUnits="userSpaceOnUse" x="0" y="0" width="44" height="44">
<rect width="44" height="44" fill="#D9D9D9"/>
</mask>
<g mask="url(#mask0_0_524)">
<path d="M18.3845 22.3077H25.6155V21.3077H18.3845V22.3077ZM18.3845 25.077H25.6155V24.077H18.3845V25.077ZM18.3845 27.8462H22.6155V26.8462H18.3845V27.8462ZM16.6155 31C16.1552 31 15.7708 30.8458 15.4625 30.5375C15.1542 30.2292 15 29.8448 15 29.3845V14.6155C15 14.1552 15.1542 13.7708 15.4625 13.4625C15.7708 13.1542 16.1552 13 16.6155 13H24.5L29 17.5V29.3845C29 29.8448 28.8458 30.2292 28.5375 30.5375C28.2292 30.8458 27.8448 31 27.3845 31H16.6155ZM24 18V14H16.6155C16.4615 14 16.3204 14.0641 16.1923 14.1923C16.0641 14.3204 16 14.4615 16 14.6155V29.3845C16 29.5385 16.0641 29.6796 16.1923 29.8078C16.3204 29.9359 16.4615 30 16.6155 30H27.3845C27.5385 30 27.6796 29.9359 27.8077 29.8078C27.9359 29.6796 28 29.5385 28 29.3845V18H24Z" fill="#7A7A7A"/>
</g>
</svg>
