<svg width="24" height="24" viewBox="0 0 24 24" fill="none" xmlns="http://www.w3.org/2000/svg">
<path d="M6 18C6 16.3432 7.34317 15 9.00001 15H12V18C12 19.6568 10.6569 21 9.00001 21C7.34317 21 6 19.6568 6 18Z" fill="#24CB71"/>
<path d="M12 3V9H15C16.6569 9 18 7.65684 18 6C18 4.34316 16.6569 3 15 3H12Z" fill="#FF7237"/>
<path d="M14.9746 15C16.6315 15 17.9746 13.6569 17.9746 12C17.9746 10.3431 16.6315 9 14.9746 9C13.3178 9 11.9746 10.3431 11.9746 12C11.9746 13.6569 13.3178 15 14.9746 15Z" fill="#00B6FF"/>
<path d="M6 6C6 7.65684 7.34317 9 9.00001 9H12V3H9.00001C7.34317 3 6 4.34316 6 6Z" fill="#FF3737"/>
<path d="M6 12C6 13.6568 7.34317 15 9.00001 15H12V9H9.00001C7.34317 9 6 10.3432 6 12Z" fill="#874FFF"/>
</svg>
