<svg width="24" height="24" viewBox="0 0 24 24" fill="none" xmlns="http://www.w3.org/2000/svg">
<mask id="mask0_0_297" style="mask-type:alpha" maskUnits="userSpaceOnUse" x="0" y="0" width="24" height="24">
<rect width="24" height="24" fill="#D9D9D9"/>
</mask>
<g mask="url(#mask0_0_297)">
<path d="M9.6155 18.5001V17.5001H20V18.5001H9.6155ZM9.6155 12.5001V11.5001H20V12.5001H9.6155ZM9.6155 6.5001V5.5001H20V6.5001H9.6155ZM5.327 19.3271C4.962 19.3271 4.64958 19.1972 4.38975 18.9373C4.12992 18.6773 4 18.3649 4 18.0001C4 17.6353 4.12992 17.3228 4.38975 17.0628C4.64958 16.803 4.962 16.6731 5.327 16.6731C5.69183 16.6731 6.00417 16.803 6.264 17.0628C6.52383 17.3228 6.65375 17.6353 6.65375 18.0001C6.65375 18.3649 6.52383 18.6773 6.264 18.9373C6.00417 19.1972 5.69183 19.3271 5.327 19.3271ZM5.327 13.3271C4.962 13.3271 4.64958 13.1972 4.38975 12.9373C4.12992 12.6773 4 12.3649 4 12.0001C4 11.6353 4.12992 11.3228 4.38975 11.0628C4.64958 10.803 4.962 10.6731 5.327 10.6731C5.69183 10.6731 6.00417 10.803 6.264 11.0628C6.52383 11.3228 6.65375 11.6353 6.65375 12.0001C6.65375 12.3649 6.52383 12.6773 6.264 12.9373C6.00417 13.1972 5.69183 13.3271 5.327 13.3271ZM5.327 7.3271C4.962 7.3271 4.64958 7.19718 4.38975 6.93735C4.12992 6.67735 4 6.36493 4 6.0001C4 5.63526 4.12992 5.32285 4.38975 5.06285C4.64958 4.80301 4.962 4.6731 5.327 4.6731C5.69183 4.6731 6.00417 4.80301 6.264 5.06285C6.52383 5.32285 6.65375 5.63526 6.65375 6.0001C6.65375 6.36493 6.52383 6.67735 6.264 6.93735C6.00417 7.19718 5.69183 7.3271 5.327 7.3271Z" fill="#ACACAC"/>
</g>
</svg>
