<svg width="24" height="24" viewBox="0 0 24 24" fill="none" xmlns="http://www.w3.org/2000/svg">
<mask id="mask0_1_167" style="mask-type:alpha" maskUnits="userSpaceOnUse" x="0" y="0" width="24" height="24">
<rect width="24" height="24" fill="#D9D9D9"/>
</mask>
<g mask="url(#mask0_1_167)">
<path d="M10 15.5769V8.42288L15.577 11.9999L10 15.5769ZM12 21.9999C10.059 21.9999 8.30417 21.5009 6.7355 20.5029C5.167 19.5047 3.92183 18.0973 3 16.2806V19.9999H2V14.6154H7.3655V15.6154H3.8C4.573 17.2755 5.68742 18.588 7.14325 19.5529C8.59908 20.5175 10.218 20.9999 12 20.9999C13.9808 20.9999 15.76 20.4082 17.3375 19.2249C18.915 18.0415 19.9948 16.503 20.577 14.6094L21.5655 14.8094C20.9437 16.9607 19.7513 18.697 17.9885 20.0181C16.2257 21.3393 14.2295 21.9999 12 21.9999ZM2.05 10.9999C2.1795 9.96021 2.41408 9.02721 2.75375 8.20088C3.09358 7.37455 3.59167 6.53446 4.248 5.68063L4.98075 6.37488C4.44742 7.07105 4.03333 7.77138 3.7385 8.47588C3.44367 9.18038 3.21608 10.0217 3.05575 10.9999H2.05ZM6.38075 4.99413L5.6865 4.26138C6.493 3.63071 7.34367 3.13171 8.2385 2.76438C9.13333 2.39705 10.0538 2.17171 11 2.08838V3.08838C10.1885 3.17171 9.38975 3.3768 8.60375 3.70363C7.81792 4.03063 7.07692 4.4608 6.38075 4.99413ZM17.5865 4.99413C16.9802 4.48646 16.2574 4.05955 15.4183 3.71338C14.5791 3.36721 13.773 3.15888 13 3.08838V2.08838C13.95 2.17555 14.8734 2.40505 15.7703 2.77688C16.6671 3.14855 17.5103 3.6498 18.3 4.28063L17.5865 4.99413ZM20.9115 10.9999C20.8025 10.0729 20.5846 9.2283 20.2577 8.46613C19.9307 7.70396 19.5006 7.0133 18.9673 6.39413L19.6807 5.68063C20.3244 6.4448 20.8321 7.27521 21.2038 8.17188C21.5756 9.06871 21.8115 10.0114 21.9115 10.9999H20.9115Z" fill="#ACACAC"/>
</g>
</svg>
