<svg width="17" height="17" viewBox="0 0 17 17" fill="none" xmlns="http://www.w3.org/2000/svg">
<path d="M8.373 11.8885L4.8575 8.373L8.373 4.8575L11.8885 8.373L8.373 11.8885ZM9.523 16.2288C9.36533 16.3864 9.18717 16.5057 8.9885 16.5865C8.78967 16.6673 8.5845 16.7078 8.373 16.7078C8.1615 16.7078 7.95633 16.6673 7.7575 16.5865C7.55883 16.5057 7.38067 16.3864 7.223 16.2288L0.4595 9.46525C0.314667 9.32042 0.201833 9.14867 0.121 8.95C0.0403332 8.75117 0 8.55242 0 8.35375C0 8.15508 0.0403332 7.95633 0.121 7.7575C0.201833 7.55883 0.314667 7.38708 0.4595 7.24225L7.21725 0.4845C7.37875 0.323 7.55792 0.201832 7.75475 0.120999C7.95158 0.0403325 8.15767 0 8.373 0C8.58833 0 8.79442 0.0403325 8.99125 0.120999C9.18808 0.201832 9.36725 0.323 9.52875 0.4845L16.2865 7.24225C16.4313 7.38708 16.5442 7.55883 16.625 7.7575C16.7057 7.95633 16.746 8.15508 16.746 8.35375C16.746 8.55242 16.7057 8.75117 16.625 8.95C16.5442 9.14867 16.4313 9.32042 16.2865 9.46525L9.523 16.2288ZM8.7 15.2267L15.246 8.68075C15.3358 8.59092 15.3808 8.48192 15.3808 8.35375C15.3808 8.22558 15.3358 8.11658 15.246 8.02675L8.7 1.48075C8.61017 1.39092 8.50117 1.34925 8.373 1.35575C8.24483 1.36208 8.13583 1.41017 8.046 1.5L1.48075 8.06525C1.39092 8.15508 1.34925 8.25767 1.35575 8.373C1.36208 8.48833 1.41017 8.59092 1.5 8.68075L8.046 15.2267C8.13583 15.3166 8.24483 15.3615 8.373 15.3615C8.50117 15.3615 8.61017 15.3166 8.7 15.2267Z" fill="#7A7A7A"/>
</svg>
