<svg width="24" height="24" viewBox="0 0 24 24" fill="none" xmlns="http://www.w3.org/2000/svg">
<mask id="mask0_0_315" style="mask-type:alpha" maskUnits="userSpaceOnUse" x="0" y="0" width="24" height="24">
<rect width="24" height="24" fill="#D9D9D9"/>
</mask>
<g mask="url(#mask0_0_315)">
<path d="M8.00011 19.3846V9.60961C8.00011 9.16228 8.15844 8.7822 8.47511 8.46936C8.79178 8.15653 9.17386 8.00011 9.62136 8.00011H19.3846C19.8321 8.00011 20.2133 8.15744 20.5281 8.47211C20.8428 8.78695 21.0001 9.16811 21.0001 9.61561V16.5771L16.5771 21.0001H9.61561C9.16811 21.0001 8.78695 20.8428 8.47211 20.5281C8.15744 20.2133 8.00011 19.8321 8.00011 19.3846ZM3.02511 6.59636C2.93794 6.14886 3.02386 5.74594 3.28286 5.38761C3.54186 5.02928 3.89503 4.80653 4.34236 4.71936L13.9616 3.02511C14.4091 2.93794 14.812 3.02386 15.1704 3.28286C15.5287 3.54186 15.7514 3.89503 15.8386 4.34236L16.0501 5.61561H15.0386L14.8251 4.42311C14.7994 4.28211 14.7225 4.16995 14.5944 4.08661C14.4662 4.00328 14.3252 3.97444 14.1714 4.00011L4.51936 5.71361C4.33986 5.73928 4.20528 5.82261 4.11561 5.96361C4.02578 6.10461 3.99369 6.26486 4.01936 6.44436L5.61561 15.4596V17.3964C5.38728 17.2847 5.19336 17.1264 5.03386 16.9214C4.87419 16.7162 4.76936 16.4809 4.71936 16.2156L3.02511 6.59636ZM9.00011 9.61561V19.3846C9.00011 19.5641 9.05778 19.7116 9.17311 19.8271C9.28861 19.9424 9.43611 20.0001 9.61561 20.0001H16.0001L20.0001 16.0001V9.61561C20.0001 9.43611 19.9424 9.28861 19.8271 9.17311C19.7116 9.05778 19.5641 9.00011 19.3846 9.00011H9.61561C9.43611 9.00011 9.28861 9.05778 9.17311 9.17311C9.05778 9.28861 9.00011 9.43611 9.00011 9.61561ZM14.0001 18.0001H15.0001V15.0001H18.0001V14.0001H15.0001V11.0001H14.0001V14.0001H11.0001V15.0001H14.0001V18.0001Z" fill="#ACACAC"/>
</g>
</svg>
