<svg width="20" height="20" viewBox="0 0 20 20" fill="none" xmlns="http://www.w3.org/2000/svg">
<g clip-path="url(#clip0_0_474)">
<mask id="path-1-inside-1_0_474" fill="white">
<path d="M0 8C0 3.58172 3.58172 0 8 0H12C16.4183 0 20 3.58172 20 8V12C20 16.4183 16.4183 20 12 20H8C3.58172 20 0 16.4183 0 12V8Z"/>
</mask>
<path d="M0 8C0 3.58172 3.58172 0 8 0H12C16.4183 0 20 3.58172 20 8V12C20 16.4183 16.4183 20 12 20H8C3.58172 20 0 16.4183 0 12V8Z" fill="#252525"/>
<mask id="mask0_0_474" style="mask-type:alpha" maskUnits="userSpaceOnUse" x="0" y="0" width="20" height="20">
<rect width="20" height="20" fill="#D9D9D9"/>
</mask>
<g mask="url(#mask0_0_474)">
<path d="M8.10427 14.149L4.36719 10.4327L5.13302 9.64583L8.10427 12.6171L14.8672 5.875L15.633 6.64104L8.10427 14.149Z" fill="#2D9DFF"/>
</g>
</g>
<path d="M0 0H20H0ZM20 12C20 16.9706 15.9706 21 11 21H9C4.02944 21 0 16.9706 0 12C0 15.866 3.58172 19 8 19H12C16.4183 19 20 15.866 20 12ZM0 20V0V20ZM20 0V20V0Z" fill="#4A4A4A" mask="url(#path-1-inside-1_0_474)"/>
<defs>
<clipPath id="clip0_0_474">
<path d="M0 8C0 3.58172 3.58172 0 8 0H12C16.4183 0 20 3.58172 20 8V12C20 16.4183 16.4183 20 12 20H8C3.58172 20 0 16.4183 0 12V8Z" fill="white"/>
</clipPath>
</defs>
</svg>
