<svg width="48" height="48" viewBox="0 0 48 48" fill="none" xmlns="http://www.w3.org/2000/svg">
<path d="M12 36C12 32.6863 14.6863 30 18 30H24V36C24 39.3137 21.3137 42 18 42C14.6863 42 12 39.3137 12 36Z" fill="#24CB71"/>
<path d="M23.9998 6V18H29.9998C33.3135 18 35.9998 15.3137 35.9998 12C35.9998 8.68632 33.3135 6 29.9998 6H23.9998Z" fill="#FF7237"/>
<path d="M29.95 30C33.2637 30 35.95 27.3137 35.95 24C35.95 20.6863 33.2637 18 29.95 18C26.6363 18 23.95 20.6863 23.95 24C23.95 27.3137 26.6363 30 29.95 30Z" fill="#00B6FF"/>
<path d="M12 12C12 15.3137 14.6863 18 18 18H24V6H18C14.6863 6 12 8.68632 12 12Z" fill="#FF3737"/>
<path d="M12 24C12 27.3137 14.6863 30 18 30H24V18H18C14.6863 18 12 20.6863 12 24Z" fill="#874FFF"/>
</svg>
