<svg width="24" height="24" viewBox="0 0 24 24" fill="none" xmlns="http://www.w3.org/2000/svg">
<mask id="mask0_0_279" style="mask-type:alpha" maskUnits="userSpaceOnUse" x="0" y="0" width="24" height="24">
<rect width="24" height="24" fill="#D9D9D9"/>
</mask>
<g mask="url(#mask0_0_279)">
<path d="M19.4844 20.1538L13.2229 13.8923C12.7229 14.318 12.1479 14.6475 11.4979 14.8808C10.8479 15.1141 10.1947 15.2308 9.53837 15.2308C7.9367 15.2308 6.58112 14.6764 5.47162 13.5675C4.36228 12.4587 3.80762 11.104 3.80762 9.50329C3.80762 7.90245 4.36203 6.54654 5.47087 5.43554C6.5797 4.3247 7.93445 3.76929 9.53512 3.76929C11.136 3.76929 12.4919 4.32395 13.6029 5.43329C14.7137 6.54279 15.2691 7.89837 15.2691 9.50004C15.2691 10.1949 15.146 10.8673 14.8999 11.5173C14.6537 12.1673 14.3306 12.723 13.9306 13.1845L20.1921 19.4463L19.4844 20.1538ZM9.53837 14.2308C10.8652 14.2308 11.9854 13.774 12.8989 12.8605C13.8124 11.9472 14.2691 10.827 14.2691 9.50004C14.2691 8.17304 13.8124 7.05287 12.8989 6.13954C11.9854 5.22604 10.8652 4.76929 9.53837 4.76929C8.21137 4.76929 7.0912 5.22604 6.17787 6.13954C5.26437 7.05287 4.80762 8.17304 4.80762 9.50004C4.80762 10.827 5.26437 11.9472 6.17787 12.8605C7.0912 13.774 8.21137 14.2308 9.53837 14.2308Z" fill="#ACACAC"/>
</g>
</svg>
