<svg width="36" height="36" viewBox="0 0 36 36" fill="none" xmlns="http://www.w3.org/2000/svg">
<path d="M4.66882 33.1024L3.55598 3.45027C3.51923 2.47098 4.27012 1.64103 5.24819 1.57991L30.4694 0.00357862C31.465 -0.0586441 32.3225 0.697978 32.3847 1.69354C32.3871 1.73105 32.3882 1.76862 32.3882 1.80621V34.1175C32.3882 35.115 31.5796 35.9236 30.5821 35.9236C30.5551 35.9236 30.528 35.923 30.501 35.9218L6.39266 34.839C5.45373 34.7968 4.70407 34.0416 4.66882 33.1024Z" fill="#FF4785"/>
<mask id="mask0_0_222" style="mask-type:luminance" maskUnits="userSpaceOnUse" x="3" y="0" width="30" height="36">
<path d="M4.66882 33.1024L3.55598 3.45027C3.51923 2.47098 4.27012 1.64103 5.24819 1.57991L30.4694 0.00357862C31.465 -0.0586441 32.3225 0.697978 32.3847 1.69354C32.3871 1.73105 32.3882 1.76862 32.3882 1.80621V34.1175C32.3882 35.115 31.5796 35.9236 30.5821 35.9236C30.5551 35.9236 30.528 35.923 30.501 35.9218L6.39266 34.839C5.45373 34.7968 4.70407 34.0416 4.66882 33.1024Z" fill="white"/>
</mask>
<g mask="url(#mask0_0_222)">
<path d="M24.8459 4.41558L25.0182 0.272143L28.4818 0L28.6311 4.27299C28.6363 4.4217 28.5199 4.54646 28.3712 4.55165C28.3075 4.55388 28.2451 4.53346 28.1951 4.49403L26.8594 3.44183L25.278 4.64143C25.1594 4.73136 24.9904 4.70816 24.9005 4.58961C24.8626 4.5397 24.8433 4.47817 24.8459 4.41558ZM20.4163 13.5401C20.4163 14.2428 25.1495 13.906 25.7849 13.4124C25.7849 8.62722 23.2173 6.11268 18.5156 6.11268C13.8138 6.11268 11.1795 8.66635 11.1795 12.4968C11.1795 19.1683 20.1829 19.296 20.1829 22.935C20.1829 23.9564 19.6827 24.5629 18.5823 24.5629C17.1484 24.5629 16.5815 23.8306 16.6482 21.3408C16.6482 20.8007 11.1795 20.6323 11.0128 21.3408C10.5882 27.3745 14.3474 29.1149 18.649 29.1149C22.8172 29.1149 26.0851 26.8931 26.0851 22.8711C26.0851 15.7209 16.9483 15.9124 16.9483 12.3692C16.9483 10.9327 18.0154 10.7412 18.649 10.7412C19.3159 10.7412 20.5163 10.8587 20.4163 13.5401Z" fill="white"/>
</g>
</svg>
